<svg width="28" height="33" viewBox="0 0 28 33" fill="none" xmlns="http://www.w3.org/2000/svg">
<path d="M24.5 15.6316H3.5V6.94737H24.5M21.875 26.0526C21.1788 26.0526 20.5111 25.7781 20.0188 25.2896C19.5266 24.801 19.25 24.1383 19.25 23.4474C19.25 22.7564 19.5266 22.0938 20.0188 21.6052C20.5111 21.1166 21.1788 20.8421 21.875 20.8421C22.5712 20.8421 23.2389 21.1166 23.7312 21.6052C24.2234 22.0938 24.5 22.7564 24.5 23.4474C24.5 24.1383 24.2234 24.801 23.7312 25.2896C23.2389 25.7781 22.5712 26.0526 21.875 26.0526ZM6.125 26.0526C5.42881 26.0526 4.76113 25.7781 4.26884 25.2896C3.77656 24.801 3.5 24.1383 3.5 23.4474C3.5 22.7564 3.77656 22.0938 4.26884 21.6052C4.76113 21.1166 5.42881 20.8421 6.125 20.8421C6.82119 20.8421 7.48887 21.1166 7.98116 21.6052C8.47344 22.0938 8.75 22.7564 8.75 23.4474C8.75 24.1383 8.47344 24.801 7.98116 25.2896C7.48887 25.7781 6.82119 26.0526 6.125 26.0526ZM0 24.3158C0 25.8442 0.6825 27.2163 1.75 28.1716V31.2632C1.75 31.7238 1.93437 32.1656 2.26256 32.4913C2.59075 32.817 3.03587 33 3.5 33H5.25C5.71413 33 6.15925 32.817 6.48744 32.4913C6.81563 32.1656 7 31.7238 7 31.2632V29.5263H21V31.2632C21 31.7238 21.1844 32.1656 21.5126 32.4913C21.8407 32.817 22.2859 33 22.75 33H24.5C24.9641 33 25.4093 32.817 25.7374 32.4913C26.0656 32.1656 26.25 31.7238 26.25 31.2632V28.1716C27.3175 27.2163 28 25.8442 28 24.3158V6.94737C28 0.868421 21.735 0 14 0C6.265 0 0 0.868421 0 6.94737V24.3158Z" fill="white"/>
</svg>
