<svg width="26" height="26" viewBox="0 0 26 26" fill="none" xmlns="http://www.w3.org/2000/svg">
<path fill-rule="evenodd" clip-rule="evenodd" d="M13 0C20.1799 0 26 5.8201 26 13C26 20.1799 20.1799 26 13 26C5.8201 26 0 20.1799 0 13C0 5.8201 5.8201 0 13 0ZM2.8665 15.353C3.32144 17.3061 4.33067 19.0863 5.77292 20.4796C7.21517 21.873 9.02909 22.8203 10.9967 23.2076C10.7458 19.7951 9.6239 17.7476 8.2069 16.6153C6.8497 15.5298 5.0089 15.1099 2.8665 15.3517V15.353ZM17.7931 16.614C16.3761 17.7489 15.2542 19.7951 15.0033 23.2076C16.9711 22.8202 18.7851 21.8727 20.2274 20.4791C21.6696 19.0855 22.6788 17.305 23.1335 15.3517C20.9911 15.1099 19.1503 15.5298 17.7931 16.6153V16.614ZM13 2.6C10.577 2.60032 8.23015 3.44633 6.36426 4.99206C4.49838 6.53778 3.23051 8.68629 2.7794 11.0669L2.7235 11.3893L5.5965 10.8147C6.3531 10.6639 7.072 10.2648 7.8754 9.7227L8.4955 9.2911C9.5316 8.5553 11.0669 7.8 13 7.8C14.8044 7.8 16.2617 8.4578 17.29 9.1442L18.1246 9.7227C18.8266 10.1972 19.4662 10.5612 20.1214 10.7471L20.4035 10.8147L23.2765 11.3893C22.892 8.94 21.6453 6.70857 19.7612 5.09709C17.877 3.48561 15.4793 2.60006 13 2.6Z" fill="white"/>
</svg>
