<svg width="25" height="25" viewBox="0 0 25 25" fill="none" xmlns="http://www.w3.org/2000/svg">
<path fill-rule="evenodd" clip-rule="evenodd" d="M12.5 0C9.18479 0 6.00537 1.31696 3.66117 3.66117C1.31696 6.00537 0 9.18479 0 12.5C0 15.8152 1.31696 18.9946 3.66117 21.3388C6.00537 23.683 9.18479 25 12.5 25C15.8152 25 18.9946 23.683 21.3388 21.3388C23.683 18.9946 25 15.8152 25 12.5C25 9.18479 23.683 6.00537 21.3388 3.66117C18.9946 1.31696 15.8152 0 12.5 0ZM1.79299 12.5C1.79299 9.66033 2.92105 6.93696 4.929 4.929C6.93696 2.92105 9.66033 1.79299 12.5 1.79299C15.3397 1.79299 18.063 2.92105 20.071 4.929C22.0789 6.93696 23.207 9.66033 23.207 12.5C23.207 15.3397 22.0789 18.063 20.071 20.071C18.063 22.0789 15.3397 23.207 12.5 23.207C9.66033 23.207 6.93696 22.0789 4.929 20.071C2.92105 18.063 1.79299 15.3397 1.79299 12.5ZM7.85143 15.7349C7.78171 15.6305 7.69187 15.5411 7.58715 15.4718C7.48244 15.4026 7.36495 15.3549 7.24158 15.3316C7.11821 15.3083 6.99144 15.3099 6.86869 15.3362C6.74593 15.3626 6.62967 15.4131 6.5267 15.485C6.42373 15.5568 6.33613 15.6484 6.26902 15.7545C6.20192 15.8607 6.15666 15.9791 6.1359 16.1029C6.11515 16.2267 6.1193 16.3534 6.14813 16.4756C6.17696 16.5978 6.22988 16.713 6.30379 16.8145C6.99889 17.8137 7.92551 18.6298 9.00451 19.1931C10.0835 19.7565 11.2828 20.0503 12.5 20.0494C15.0668 20.0494 17.3316 18.7679 18.6962 16.8145C18.8333 16.6091 18.8845 16.3582 18.8387 16.1155C18.7929 15.8729 18.6538 15.6578 18.4513 15.5165C18.2487 15.3752 17.9989 15.319 17.7553 15.3598C17.5118 15.4007 17.294 15.5353 17.1486 15.7349C16.6273 16.4848 15.9322 17.0973 15.1227 17.52C14.3131 17.9427 13.4132 18.163 12.5 18.1621C11.5868 18.163 10.6869 17.9427 9.87733 17.52C9.06779 17.0973 8.37267 16.4848 7.85143 15.7349ZM8.48936 11.2732C8.92734 11.2732 9.3474 11.0992 9.6571 10.7895C9.96681 10.4798 10.1408 10.0598 10.1408 9.62177C10.1408 9.18378 9.96681 8.76373 9.6571 8.45403C9.3474 8.14432 8.92734 7.97033 8.48936 7.97033C8.05137 7.97033 7.63131 8.14432 7.32161 8.45403C7.0119 8.76373 6.83791 9.18378 6.83791 9.62177C6.83791 10.0598 7.0119 10.4798 7.32161 10.7895C7.63131 11.0992 8.05137 11.2732 8.48936 11.2732ZM18.1621 9.62177C18.1621 10.0598 17.9881 10.4798 17.6784 10.7895C17.3687 11.0992 16.9486 11.2732 16.5106 11.2732C16.0727 11.2732 15.6526 11.0992 15.3429 10.7895C15.0332 10.4798 14.8592 10.0598 14.8592 9.62177C14.8592 9.18378 15.0332 8.76373 15.3429 8.45403C15.6526 8.14432 16.0727 7.97033 16.5106 7.97033C16.9486 7.97033 17.3687 8.14432 17.6784 8.45403C17.9881 8.76373 18.1621 9.18378 18.1621 9.62177Z" fill="white"/>
</svg>
